<?xml version="1.0" encoding="UTF-8" standalone="no"?>
<!DOCTYPE svg PUBLIC "-//W3C//DTD SVG 1.0//EN" "http://www.w3.org/TR/2001/PR-SVG-20010719/DTD/svg10.dtd">
<svg width="23cm" height="15cm" viewBox="19 19 441 281" xmlns="http://www.w3.org/2000/svg" xmlns:xlink="http://www.w3.org/1999/xlink">
  <image x="380" y="220" width="20" height="19.2958" xlink:href="file:///usr/share/openclipart/svg/AJ/AJ_Padlock_Silhouette_2.svg"/>
  <image x="80" y="180" width="20" height="28.3721" xlink:href="file:///usr/share/openclipart/svg/AJ/AJ_Padlock_Silhouette.svg"/>
  <g>
    <rect style="fill: #ffffff" x="240" y="20" width="220" height="100"/>
    <rect style="fill: none; fill-opacity:0; stroke-width: 1; stroke: #000000" x="240" y="20" width="220" height="100"/>
  </g>
  <text font-size="12.7998" style="fill: #000000;text-anchor:start;font-family:sans-serif;font-style:normal;font-weight:normal" x="420" y="40">
    <tspan x="420" y="40">bob</tspan>
  </text>
  <text font-size="12.7998" style="fill: #000000;text-anchor:start;font-family:sans-serif;font-style:normal;font-weight:normal" x="350" y="70">
    <tspan x="350" y="70"></tspan>
  </text>
  <text font-size="12.7998" style="fill: #000000;text-anchor:start;font-family:sans-serif;font-style:normal;font-weight:normal" x="80" y="160">
    <tspan x="80" y="160"></tspan>
  </text>
  <g>
    <g>
      <rect style="fill: #ffffff" x="360" y="140" width="100" height="40"/>
      <rect style="fill: none; fill-opacity:0; stroke-width: 1; stroke: #000000" x="360" y="140" width="100" height="40"/>
    </g>
    <text font-size="12.7998" style="fill: #000000;text-anchor:start;font-family:sans-serif;font-style:normal;font-weight:normal" x="380" y="160">
      <tspan x="380" y="160">plaintext</tspan>
    </text>
    <text font-size="12.7998" style="fill: #000000;text-anchor:start;font-family:sans-serif;font-style:normal;font-weight:normal" x="420" y="160">
      <tspan x="420" y="160"></tspan>
    </text>
  </g>
  <text font-size="12.7998" style="fill: #000000;text-anchor:start;font-family:sans-serif;font-style:normal;font-weight:normal" x="260" y="160">
    <tspan x="260" y="160"></tspan>
  </text>
  <text font-size="12.7998" style="fill: #000000;text-anchor:start;font-family:sans-serif;font-style:normal;font-weight:normal" x="260" y="160">
    <tspan x="260" y="160"></tspan>
  </text>
  <g>
    <line style="fill: none; fill-opacity:0; stroke-width: 1; stroke: #000000" x1="62.2766" y1="60.4895" x2="65.659" y2="90.9311"/>
    <polygon style="fill: #000000" points="66.4873,98.3853 60.4135,88.9986 65.659,90.9311 70.3524,87.8943 "/>
    <polygon style="fill: none; fill-opacity:0; stroke-width: 1; stroke: #000000" points="66.4873,98.3853 60.4135,88.9986 65.659,90.9311 70.3524,87.8943 "/>
  </g>
  <g>
    <g>
      <rect style="fill: #ffffff" x="20" y="260" width="100" height="40"/>
      <rect style="fill: none; fill-opacity:0; stroke-width: 1; stroke: #000000" x="20" y="260" width="100" height="40"/>
    </g>
    <text font-size="12.7998" style="fill: #000000;text-anchor:start;font-family:sans-serif;font-style:normal;font-weight:normal" x="40" y="280">
      <tspan x="40" y="280">ciphertext</tspan>
    </text>
  </g>
  <g>
    <line style="fill: none; fill-opacity:0; stroke-width: 1; stroke: #000000" x1="70" y1="160.487" x2="70" y2="251.167"/>
    <polygon style="fill: #000000" points="70,258.667 65,248.667 70,251.167 75,248.667 "/>
    <polygon style="fill: none; fill-opacity:0; stroke-width: 1; stroke: #000000" points="70,258.667 65,248.667 70,251.167 75,248.667 "/>
  </g>
  <g>
    <line style="fill: none; fill-opacity:0; stroke-width: 1; stroke: #000000" x1="410" y1="259.551" x2="410" y2="189.067"/>
    <polygon style="fill: #000000" points="410,181.567 415,191.567 410,189.067 405,191.567 "/>
    <polygon style="fill: none; fill-opacity:0; stroke-width: 1; stroke: #000000" points="410,181.567 415,191.567 410,189.067 405,191.567 "/>
  </g>
  <g>
    <line style="fill: none; fill-opacity:0; stroke-width: 1; stroke: #000000" x1="396.34" y1="139.51" x2="388.45" y2="127.675"/>
    <polygon style="fill: #000000" points="384.29,121.434 393.997,126.981 388.45,127.675 385.676,132.528 "/>
    <polygon style="fill: none; fill-opacity:0; stroke-width: 1; stroke: #000000" points="384.29,121.434 393.997,126.981 388.45,127.675 385.676,132.528 "/>
  </g>
  <g>
    <g>
      <rect style="fill: #ffffff" x="360" y="260" width="100" height="40"/>
      <rect style="fill: none; fill-opacity:0; stroke-width: 1; stroke: #000000" x="360" y="260" width="100" height="40"/>
    </g>
    <text font-size="12.7998" style="fill: #000000;text-anchor:start;font-family:sans-serif;font-style:normal;font-weight:normal" x="380" y="280">
      <tspan x="380" y="280">ciphertext</tspan>
    </text>
  </g>
  <image x="280" y="40" width="20" height="19.2958" xlink:href="file:///usr/share/openclipart/svg/AJ/AJ_Padlock_Silhouette_2.svg"/>
  <text font-size="12.7998" style="fill: #000000;text-anchor:start;font-family:sans-serif;font-style:normal;font-weight:normal" x="300" y="59.2958">
    <tspan x="300" y="59.2958">public key</tspan>
  </text>
  <text font-size="12.7998" style="fill: #000000;text-anchor:start;font-family:sans-serif;font-style:normal;font-weight:normal" x="299.604" y="100">
    <tspan x="299.604" y="100">private key</tspan>
  </text>
  <image x="260" y="80" width="39.604" height="20" xlink:href="file:///usr/share/openclipart/svg/Anonymous/Anonymous_key.svg"/>
  <text font-size="7.33767" style="fill: #000000;text-anchor:start;font-family:sans-serif;font-style:normal;font-weight:normal" x="200.216" y="288.919">
    <tspan x="200.216" y="288.919">sent via insecure channel </tspan>
    <tspan x="200.216" y="298.091">(e.g. the internet)</tspan>
  </text>
  <g>
    <line style="fill: none; fill-opacity:0; stroke-width: 1; stroke: #000000" x1="279.106" y1="49.1909" x2="109.11" y2="42.06"/>
    <polygon style="fill: #000000" points="101.617,41.7457 111.818,37.1692 109.11,42.06 111.399,47.1604 "/>
    <polygon style="fill: none; fill-opacity:0; stroke-width: 1; stroke: #000000" points="101.617,41.7457 111.818,37.1692 109.11,42.06 111.399,47.1604 "/>
  </g>
  <g>
    <line style="fill: none; fill-opacity:0; stroke-width: 1; stroke: #000000" x1="278.995" y1="58.0199" x2="106.859" y2="188.968"/>
    <polygon style="fill: #000000" points="100.89,193.509 105.821,183.475 106.859,188.968 111.876,191.434 "/>
    <polygon style="fill: none; fill-opacity:0; stroke-width: 1; stroke: #000000" points="100.89,193.509 105.821,183.475 106.859,188.968 111.876,191.434 "/>
  </g>
  <g>
    <line style="fill: none; fill-opacity:0; stroke-width: 1; stroke: #000000" x1="287.691" y1="100.995" x2="374.976" y2="222.646"/>
    <polygon style="fill: #000000" points="379.348,228.739 369.456,223.529 374.976,222.646 377.581,217.7 "/>
    <polygon style="fill: none; fill-opacity:0; stroke-width: 1; stroke: #000000" points="379.348,228.739 369.456,223.529 374.976,222.646 377.581,217.7 "/>
  </g>
  <text font-size="7.33767" style="fill: #000000;text-anchor:start;font-family:sans-serif;font-style:normal;font-weight:normal" x="115.676" y="198">
    <tspan x="115.676" y="198">alice encrypts w/ bob's public key</tspan>
    <tspan x="115.676" y="207.172">(locking the message)</tspan>
  </text>
  <text font-size="7.33767" style="fill: #000000;text-anchor:start;font-family:sans-serif;font-style:normal;font-weight:normal" x="258.811" y="238.216">
    <tspan x="258.811" y="238.216">bob decrypts w/ his private key</tspan>
    <tspan x="258.811" y="247.388">(unlocking the message)</tspan>
  </text>
  <text font-size="12.7998" style="fill: #000000;text-anchor:start;font-family:sans-serif;font-style:normal;font-weight:normal" x="80" y="160">
    <tspan x="80" y="160"></tspan>
  </text>
  <g>
    <g>
      <rect style="fill: #ffffff" x="20" y="100" width="100" height="60"/>
      <rect style="fill: none; fill-opacity:0; stroke-width: 1; stroke: #000000" x="20" y="100" width="100" height="60"/>
    </g>
    <text font-size="12.7998" style="fill: #000000;text-anchor:start;font-family:sans-serif;font-style:normal;font-weight:normal" x="40" y="120">
      <tspan x="40" y="120">plaintext</tspan>
      <tspan x="40" y="136">(message)</tspan>
    </text>
  </g>
  <g>
    <g>
      <rect style="fill: #ffffff" x="20" y="20" width="80" height="40"/>
      <rect style="fill: none; fill-opacity:0; stroke-width: 1; stroke: #000000" x="20" y="20" width="80" height="40"/>
    </g>
    <text font-size="12.7998" style="fill: #000000;text-anchor:start;font-family:sans-serif;font-style:normal;font-weight:normal" x="40" y="40">
      <tspan x="40" y="40">alice</tspan>
    </text>
  </g>
  <g>
    <line style="fill: none; fill-opacity:0; stroke-width: 1; stroke: #000000" x1="120.499" y1="280" x2="351.382" y2="280"/>
    <polygon style="fill: #000000" points="358.882,280 348.882,285 351.382,280 348.882,275 "/>
    <polygon style="fill: none; fill-opacity:0; stroke-width: 1; stroke: #000000" points="358.882,280 348.882,285 351.382,280 348.882,275 "/>
  </g>
  <text font-size="12.7998" style="fill: #000000;text-anchor:start;font-family:sans-serif;font-style:normal;font-weight:normal" x="240" y="280">
    <tspan x="240" y="280"></tspan>
  </text>
</svg>
